
<svg width="130px" height="29px" viewBox="0 0 130 29" version="1.1" xmlns="http://www.w3.org/2000/svg" xmlns:xlink="http://www.w3.org/1999/xlink">
    <g id="00-Dashboard" stroke="none" stroke-width="1" fill="none" fill-rule="evenodd">
        <g id="00.00-Dashboard_morecovered_discover" transform="translate(-246.000000, -18.000000)" fill="#FFFFFF" fill-rule="nonzero">
            <g id="header-home" transform="translate(0.000000, -4.500000)">
                <g id="topnav-home">
                    <g id="logo-white-copy" transform="translate(246.000000, 23.000000)">
                        <path d="M13.4298387,21.784 C13.7066129,21.8196364 13.7564113,21.9413091 13.4911694,21.9626909 C11.6570161,22.1062545 7.31040323,22.3200727 4.60504032,21.4271273 L4.6066129,21.4271273 C0.59233871,20.2669091 -0.746975806,17.0494545 0.42983871,11.6215273 L2.28862903,3.39563636 C2.45689516,2.62945455 2.73943548,2.49505455 3.06758065,2.28225455 C3.75322581,1.84392727 10.2925403,-0.908727273 9.93504032,0.728 L7.35810484,12.2517818 C7.28788935,12.5734103 7.23869167,12.89903 7.21080645,13.2266909 L7.21080645,13.2353455 C6.63366935,17.6603636 8.05895161,20.3473455 11.6040726,21.4062545 C11.6528226,21.4164364 11.7036694,21.4271273 11.7587097,21.4490182 C11.9002419,21.4872 12.0501613,21.5243636 12.1990323,21.5559273 C12.5308468,21.6338182 12.9481048,21.7157818 13.4293145,21.784 M17.2192339,2.35403636 C16.9089113,2.5536 16.642621,2.68596364 16.4727823,3.33403636 L14.4389113,12.3266182 C14.3702307,12.6484711 14.3229556,12.9742843 14.297379,13.3020364 C14.1532258,15.3251636 15.1455242,16.3769455 17.1122984,16.3769455 C19.1676613,16.3769455 20.4865323,15.2859636 21.2162097,13.3478545 C21.3190949,13.0099446 21.4119158,12.6692209 21.4945565,12.3261091 L24.0866935,0.803345455 C24.4420968,-0.833890909 17.9043548,1.91469091 17.2197581,2.35454545" id="Shape"></path>
                        <path d="M35.0716935,16.4207273 L31.2712903,16.4207273 L31.2712903,0.2184 L33.1767339,0.2184 C34.5899597,0.2184 35.0716935,0.855781818 35.0716935,2.06741818 L35.0716935,16.4207273 Z M47.8452419,0.226036364 C51.6681855,0.226036364 53.5767742,2.48996364 53.5767742,7.01527273 L53.5767742,16.4207273 L49.4440323,16.4207273 L49.4440323,7.88683636 C49.4440323,5.04203636 48.3851613,3.62167273 46.266371,3.62167273 C44.9742339,3.62167273 43.6993952,4.15112727 43.0425806,5.20749091 C42.4701613,6.10247273 42.185,7.224 42.185,8.57410909 L42.185,16.4207273 L38.3426613,16.4207273 L38.3426613,0.217890909 L40.2491532,0.217890909 C41.662379,0.217890909 42.1441129,0.855781818 42.1441129,2.06741818 L42.1441129,3.49643636 C43.3471371,1.316 45.2473387,0.226036364 47.8452419,0.226036364 Z M69.2312903,15.5216727 C67.2959677,16.3677818 65.7820968,16.4207273 64.5617742,16.4207273 C62.0718548,16.4207273 60.0484677,15.6601455 58.4795565,14.1394909 C56.9158871,12.6193455 56.1337903,10.7234909 56.1337903,8.45243636 L56.1337903,8.18770909 C56.1337903,5.9192 56.9158871,4.02283636 58.4795565,2.50218182 C60.0479435,0.982036364 62.0718548,0.221454545 64.5617742,0.221454545 C65.7815726,0.221454545 66.931129,0.346690909 68.9125806,1.01258182 L68.6022581,4.11803636 C67.2351613,3.6008 66.1778629,3.34065455 65.4329839,3.34065455 C63.8991935,3.34065455 62.6741532,3.80138182 61.752621,4.71876364 C60.8431452,5.62647273 60.3656048,6.8264 60.36875,8.33076364 C60.371371,9.82749091 60.8300403,11.0019636 61.752621,11.9224 C62.6741532,12.8408 63.8991935,13.3010182 65.4329839,13.3010182 C66.1773387,13.3010182 67.6314516,13.0474909 68.9204435,12.4177455 L69.2312903,15.5216727 Z M93.9354839,16.4319273 L90.1356048,16.4319273 L90.1356048,0.218909091 L91.9314919,0.218909091 C93.6843952,0.218909091 93.9496371,1.02327273 93.9496371,1.98036364 L93.9496371,3.47352727 C95.1584274,1.31498182 96.9794758,0.233163636 99.4856452,0.233163636 C101.845565,0.233163636 103.482097,1.35570909 104.395766,3.59876364 C105.650161,1.35570909 107.539355,0.233163636 110.066492,0.233163636 C111.957258,0.233163636 113.371532,0.930109091 114.304073,2.32603636 C115.069395,3.49236364 115.455202,5.0512 115.455202,7.00610909 L115.455202,16.4324364 L111.30621,16.4324364 L111.30621,7.88123636 C111.30621,5.07461818 110.384153,3.668 108.543185,3.668 C107.27254,3.668 106.316935,4.19796364 105.681089,5.25941818 C105.154798,6.13301818 104.890605,7.23570909 104.890605,8.56850909 L104.890605,16.4319273 L100.742661,16.4319273 L100.742661,7.88123636 C100.742661,5.07461818 99.8095968,3.668 97.9418952,3.668 C96.6707258,3.668 95.3654839,4.19796364 94.7317339,5.25941818 C94.1991532,6.13301818 93.9349597,7.23570909 93.9349597,8.56850909 L93.9349597,16.4319273 L93.9354839,16.4319273 Z" id="Shape"></path>
                        <path d="M126.214274,6.96538182 C126.109435,5.6448 125.735161,4.62203636 125.094597,3.90065455 C124.45246,3.17825455 123.62371,2.81934545 122.608347,2.81934545 C121.575685,2.81934545 120.713387,3.17825455 120.03246,3.90014545 C119.347863,4.62203636 118.93375,5.6448 118.789073,6.96487273 L126.214274,6.96487273 L126.214274,6.96538182 Z M129.867903,8.18821818 L129.867903,9.44058182 L118.789073,9.44058182 C118.893911,10.7234909 119.405524,11.7335273 120.326532,12.4757818 C121.245444,13.2170182 122.453185,13.5891636 123.941371,13.5891636 C125.578427,13.5891636 127.119032,13.2236364 128.567379,12.5002182 L128.567379,15.5318545 C127.035161,16.1402182 125.251855,16.4405818 123.220605,16.4405818 C120.588629,16.4405818 118.528024,15.7039273 117.047702,14.2219636 C115.564758,12.7420364 114.826694,10.6929455 114.826694,8.07723636 C114.826694,5.7456 115.542742,3.85432727 116.985323,2.40545455 C118.424758,0.954545455 120.305565,0.229090909 122.624597,0.229090909 C124.90379,0.229090909 126.680282,0.925527273 127.955645,2.3184 C129.229435,3.71127273 129.867903,5.66618182 129.867903,8.18770909 L129.867903,8.18821818 Z M79.2266129,3.14567273 C78.0256855,3.14567273 77.038629,3.62167273 76.2602016,4.5752 C75.4833468,5.52618182 75.0954435,6.78465455 75.0954435,8.34552727 C75.0954435,9.90690909 75.4781048,11.1582545 76.2455242,12.1005818 C77.011371,13.0434182 78.0057661,13.5148364 79.2266129,13.5148364 C80.4506048,13.5148364 81.4439516,13.0495273 82.2108468,12.1158545 C82.9756452,11.1837091 83.3588306,9.92778182 83.3588306,8.34552727 C83.3588306,6.7648 82.9756452,5.50225455 82.2108468,4.5584 C81.4439516,3.61861818 80.4506048,3.14567273 79.2266129,3.14567273 Z M79.2108871,0.2408 C81.8250403,0.2408 83.8788306,0.9576 85.3701613,2.39578182 C86.8625403,3.83447273 87.6074194,5.80516364 87.6074194,8.31549091 C87.6074194,10.8263273 86.8546774,12.8036364 85.3528629,14.2494545 C83.8505242,15.6962909 81.8035484,16.4207273 79.2108871,16.4207273 C76.621371,16.4207273 74.5791129,15.6962909 73.0877823,14.2494545 C71.594879,12.8036364 70.8479032,10.8263273 70.8479032,8.31549091 C70.8479032,5.78632727 71.5885887,3.80647273 73.0725806,2.38050909 C74.5539516,0.954036364 76.6004032,0.2408 79.2108871,0.2408 Z" id="Shape"></path>
                        <path d="M70.8804032,27.8279273 L71.4360484,27.8279273 L71.4360484,25.3725818 C71.4360484,24.9067636 71.5225403,24.6802182 71.6331452,24.4888 C71.8155645,24.1864 72.147379,23.9695273 72.6139113,23.9695273 C73.0814919,23.9695273 73.4143548,24.1864 73.5957258,24.4888 C73.7058065,24.6807273 73.7949194,24.9067636 73.7949194,25.3725818 L73.7949194,27.8279273 L74.3468952,27.8279273 L74.3468952,25.3725818 C74.3468952,24.9067636 74.4344355,24.6802182 74.5450403,24.4888 C74.7258871,24.1864 75.0592742,23.9695273 75.5258065,23.9695273 C75.9923387,23.9695273 76.3257258,24.1864 76.507621,24.4888 C76.6177016,24.6807273 76.7052419,24.9067636 76.7052419,25.3725818 L76.7052419,27.8279273 L77.2587903,27.8279273 L77.2587903,25.3089455 C77.2587903,23.8682182 76.1910081,23.4808 75.5258065,23.4808 C75.1635887,23.4808 74.395121,23.6437091 74.0711694,24.2938182 C73.7456452,23.6437091 72.9777016,23.4808 72.6139113,23.4808 C72.2113306,23.4808 71.6808468,23.6589818 71.4365726,24.0779636 L71.4365726,23.5892364 L70.8804032,23.5892364 L70.8804032,27.8279273 Z M78.7260081,25.7213091 C78.7260081,24.6435636 79.5489919,23.9690182 80.4983065,23.9690182 C81.4968952,23.9690182 82.2312903,24.7825455 82.2312903,25.7121455 C82.2312903,26.7048727 81.4324194,27.4410182 80.4983065,27.4410182 C79.4378629,27.4410182 78.7265323,26.6651636 78.7265323,25.7213091 L78.7260081,25.7213091 Z M82.7539113,23.5897455 L82.2003629,23.5897455 L82.2003629,24.3325091 L82.1835887,24.3325091 C81.7254435,23.6284364 80.9658871,23.4802909 80.4983065,23.4802909 C79.0819355,23.4802909 78.1719355,24.5656727 78.1719355,25.6978909 C78.1719355,26.9146182 79.1385484,27.9277091 80.4983065,27.9277091 C80.9491129,27.9277091 81.7091935,27.7810909 82.1835887,27.0841455 L82.2003629,27.0841455 L82.2003629,27.8274182 L82.7539113,27.8274182 L82.7539113,23.5897455 Z M84.2258468,25.7213091 C84.2258468,24.6435636 85.0488306,23.9690182 85.9981452,23.9690182 C86.9951613,23.9690182 87.7300806,24.7825455 87.7300806,25.7121455 C87.7300806,26.7048727 86.9306855,27.4410182 85.9981452,27.4410182 C84.9371774,27.4410182 84.2258468,26.6651636 84.2258468,25.7213091 Z M88.2527016,22.0930182 L87.6996774,22.0930182 L87.6996774,24.3177455 L87.682379,24.3177455 C87.2158468,23.6523636 86.4730645,23.4802909 85.9981452,23.4802909 C84.5807258,23.4802909 83.6707258,24.5656727 83.6707258,25.6978909 C83.6707258,26.9146182 84.6362903,27.9277091 85.9981452,27.9277091 C86.4557661,27.9277091 87.2247581,27.7581818 87.682379,27.0841455 L87.6996774,27.0841455 L87.6996774,27.8274182 L88.2527016,27.8274182 L88.2527016,22.0935273 L88.2527016,22.0930182 Z M89.7272581,25.4189091 C89.8373326,24.5938522 90.5580218,23.9745955 91.4146371,23.9690182 C92.1029032,23.9690182 92.93375,24.4185455 93.1077823,25.4189091 L89.7272581,25.4189091 Z M93.6691935,25.9076364 C93.6922581,25.4957818 93.629879,25.0228364 93.3368548,24.5656727 C92.9360045,23.8978064 92.2016921,23.4852832 91.4057258,23.4808 C90.1466129,23.5047273 89.1585081,24.5112 89.1585081,25.7121455 C89.1585081,26.9680727 90.20375,27.9277091 91.4146371,27.9277091 C92.4116532,27.9277091 93.2419758,27.2862545 93.5433871,26.4406545 L92.9562903,26.4406545 C92.7591935,26.9680727 92.1972581,27.4242182 91.4057258,27.4410182 C90.5602016,27.4410182 89.7686694,26.7359273 89.7272581,25.9071273 L93.6691935,25.9071273 L93.6691935,25.9076364 Z M98.8052419,25.7213091 C98.8052419,24.6435636 99.6282258,23.9690182 100.577016,23.9690182 C101.574032,23.9690182 102.31,24.7825455 102.31,25.7121455 C102.31,26.7048727 101.512177,27.4410182 100.577016,27.4410182 C99.5170968,27.4410182 98.8052419,26.6651636 98.8052419,25.7213091 Z M102.832621,22.0930182 L102.279597,22.0930182 L102.279597,24.3177455 L102.263871,24.3177455 C101.795766,23.6523636 101.051411,23.4802909 100.577016,23.4802909 C99.1616935,23.4802909 98.2527419,24.5656727 98.2527419,25.6978909 C98.2527419,26.9146182 99.2151613,27.9277091 100.577016,27.9277091 C101.036734,27.9277091 101.803629,27.7581818 102.263871,27.0841455 L102.279597,27.0841455 L102.279597,27.8274182 L102.832621,27.8274182 L102.832621,22.0935273 L102.832621,22.0930182 Z M104.314516,22.8454545 L104.83871,22.8454545 L104.83871,21.8909091 L104.314516,21.8909091 L104.314516,22.8454545 Z M104.314516,27.4909091 L104.83871,27.4909091 L104.83871,23.352 L104.314516,23.352 L104.314516,27.4909091 Z" id="Shape"></path>
                        <g id="Group" transform="translate(105.362903, 21.890909)">
                            <path d="M0.691935484,5.93650909 L1.24129032,5.93650909 L1.24129032,2.17941818 L2.61362903,2.17941818 L2.61362903,1.68916364 L1.24129032,1.68916364 C1.24129032,1.2936 1.22608871,0.595127273 2.34157258,0.595127273 L2.34157258,0.0911272727 C0.755362903,0.105890909 0.708709677,1.09912727 0.691935484,1.68967273 L0.0241129032,1.68967273 L0.0241129032,2.17941818 L0.691935484,2.17941818 L0.691935484,5.93650909 Z" id="Shape"></path>
                            <path d="M3.04241935,5.93650909 L3.59282258,5.93650909 L3.59282258,2.17941818 L4.69153226,2.17941818 L4.69153226,1.68916364 L3.59282258,1.68916364 C3.59282258,1.2936 3.57762097,0.595127273 4.69153226,0.595127273 L4.69153226,0.0911272727 C3.10584677,0.105890909 3.05971774,1.09912727 3.04241935,1.68967273 L2.37669355,1.68967273 L2.37669355,2.17941818 L3.04241935,2.17941818 L3.04241935,5.93650909 Z M5.51084677,3.52290909 C5.66810484,2.52 6.50681452,2.06996364 7.18197581,2.06996364 C7.86657258,2.06996364 8.69008065,2.52050909 8.86254032,3.52290909 L5.51084677,3.52290909 Z M9.41975806,4.01214545 C9.44387097,3.59978182 9.38044355,3.12632727 9.08951613,2.66814545 C8.69592542,2.00058448 7.96669078,1.58646798 7.1746371,1.58072727 C5.92705645,1.60465455 4.94524194,2.61316364 4.94524194,3.81665455 C4.94524194,5.07512727 5.98104839,6.03629091 7.18197581,6.03629091 C8.17112903,6.03629091 8.99568548,5.39381818 9.29447581,4.54669091 L8.71366935,4.54669091 C8.51709677,5.07512727 7.95987903,5.53178182 7.1746371,5.54909091 C6.33487903,5.54909091 5.5496371,4.84247273 5.51084677,4.01214545 L9.41975806,4.01214545 Z M10.3203226,5.93650909 L10.8707258,5.93650909 L10.8707258,3.45316364 C10.8707258,3.11105455 10.9792339,2.80814545 11.1679435,2.57498182 C11.3797177,2.32603636 11.7110081,2.18603636 12.0941935,2.15549091 L12.0941935,1.58021818 C11.6302823,1.61178182 11.1454032,1.70494545 10.884879,2.30312727 L10.8702016,2.30312727 L10.8702016,1.68916364 L10.3203226,1.68916364 L10.3203226,5.93650909 Z M12.7966129,3.52290909 C12.953871,2.52 13.7925806,2.06996364 14.4677419,2.06996364 C15.1502419,2.06996364 15.9753226,2.52050909 16.1467339,3.52290909 L12.7966129,3.52290909 Z M16.705,4.01214545 C16.7280645,3.59978182 16.6656855,3.12632727 16.3737097,2.66814545 C15.9804646,2.00074534 15.251616,1.58662132 14.459879,1.58072727 C13.2107258,1.60465455 12.2294355,2.61316364 12.2294355,3.81665455 C12.2294355,5.07512727 13.2673387,6.03629091 14.4677419,6.03629091 C15.4558468,6.03629091 16.2814516,5.39381818 16.5786694,4.54669091 L15.9983871,4.54669091 C15.8023387,5.07512727 15.2445968,5.53178182 14.459879,5.54909091 C13.620121,5.54909091 12.834879,4.84247273 12.7966129,4.01214545 L16.705,4.01214545 Z M17.6097581,5.93650909 L18.1591129,5.93650909 L18.1591129,3.59978182 C18.1517742,3.04843636 18.3242339,2.66050909 18.5595968,2.43447273 C18.8568145,2.14785455 19.2499597,2.06996364 19.4942339,2.06996364 C19.7369355,2.06996364 20.1290323,2.14785455 20.4272984,2.43447273 C20.6637097,2.66050909 20.8361694,3.04843636 20.8361694,3.60029091 L20.8361694,5.93650909 L21.3855242,5.93650909 L21.3855242,3.59978182 C21.3855242,2.9008 21.1727016,2.41054545 20.8524194,2.10050909 C20.4592742,1.71309091 20.0189516,1.58072727 19.4947581,1.58072727 C18.7635081,1.58072727 18.3399597,1.97730909 18.1753629,2.23236364 L18.1591129,2.23236364 L18.1591129,1.68916364 L17.6097581,1.68916364 L17.6097581,5.93650909 Z" id="Shape"></path>
                        </g>
                        <polygon id="Shape" points="128.411169 27.4909091 128.411169 23.8295273 127.379032 23.8295273 127.379032 23.352 128.411169 23.352 128.411169 21.8909091 128.964194 21.8909091 128.964194 23.352 130 23.352 130 23.8295273 128.964194 23.8295273 128.964194 27.4909091"></polygon>
                    </g>
                </g>
            </g>
        </g>
    </g>
</svg>
