<svg width="36px" height="36px" viewBox="0 0 36 36" version="1.1" xmlns="http://www.w3.org/2000/svg" xmlns:xlink="http://www.w3.org/1999/xlink">
    <g id="Symbols" stroke="none" stroke-width="1" fill="none" fill-rule="evenodd">
        <g id="topnav" transform="translate(-1099.000000, -17.000000)">
            <g id="Group-13" transform="translate(1109.000000, 27.000000)" fill="#FFFFFF">
                <g id="Rounded-Copy">
                    <path d="M14.6874001,14.6873834 C14.2716661,15.1042055 13.596898,15.1042055 13.1800981,14.6873834 L10.0887432,11.5958638 C7.59114167,13.3729545 4.11283445,13.1586802 1.87320115,10.9178615 C-0.624400384,8.42012686 -0.624400384,4.37023613 1.87320115,1.87250147 C4.37186867,-0.624167155 8.42154355,-0.624167155 10.9191451,1.87250147 C13.1587784,4.11225414 13.3730413,7.59074676 11.5960452,10.0884814 L14.6874001,13.178935 C15.1042,13.5957572 15.1042,14.2705613 14.6874001,14.6873834 L14.6874001,14.6873834 Z M9.4107771,3.38094984 C7.74570941,1.71472736 5.04663682,1.71472736 3.38156913,3.38094984 C1.71543545,5.04504024 1.71543545,7.7442567 3.38156913,9.41047919 C5.04663682,11.0756356 7.74570941,11.0756356 9.4107771,9.41047919 C11.0769108,7.7442567 11.0769108,5.04504024 9.4107771,3.38094984 L9.4107771,3.38094984 Z" id="Shape"></path>
                </g>
            </g>
            <circle id="Oval-Copy-6" stroke="#FFFFFF" cx="1117" cy="35" r="17"></circle>
        </g>
    </g>
</svg>
